<?xml version="1.0" encoding="utf-8"?>
<!-- Generator: Adobe Illustrator 21.0.0, SVG Export Plug-In . SVG Version: 6.00 Build 0)  -->
<svg version="1.1" baseProfile="tiny" id="Layer_1" xmlns="http://www.w3.org/2000/svg" xmlns:xlink="http://www.w3.org/1999/xlink"
	 x="0px" y="0px" viewBox="0 0 23.2140007 23.2579994" xml:space="preserve">
<title>icon-edit</title>
<g>
	<path fill="#FFFFFF" d="M4.0856323,16.9143677c-0.1097412,0.1097412-0.1924438,0.2435913-0.2415771,0.3908691l-0.7927856,2.3783569
		c-0.1196289,0.359375-0.0263672,0.7558594,0.2416992,1.0234375C3.4833984,20.8979492,3.7392578,21,4,21
		c0.105957,0,0.2124023-0.0166016,0.3164062-0.0512695l2.3783569-0.7927856
		c0.1472778-0.0491333,0.2811279-0.1318359,0.3908691-0.2415771L18,9l-3-3L4.0856323,16.9143677z"/>
	<path fill="#FFFFFF" d="M20.7070923,4.8786621l-1.5857544-1.5857544c-0.390564-0.390564-1.0236816-0.390564-1.4142456,0L16,5l3,3
		l1.7070923-1.7070923C21.0976562,5.9023438,21.0976562,5.269165,20.7070923,4.8786621z"/>
</g>
</svg>
